PathFileType	4	(X/Y/Z)	c:/Users/goper/Files/vsCode/490R/osim_files/A01/A01_Slow_04.trc
DataRate	CameraRate	NumFrames	NumMarkers	Units                	OrigDataRate	OrigDataStartFrame	OrigNumFrames
120.00	120.00	7	36	mm	120.0	1039	1661
                Frame#	Time	Mobility_markerset:LPSIS			Mobility_markerset:LASIS			Mobility_markerset:LTH1			Mobility_markerset:LTH2			Mobility_markerset:LTH3			Mobility_markerset:LTH4			Mobility_markerset:LLFE			Mobility_markerset:LMFE			Mobility_markerset:LSH1			Mobility_markerset:LSH2			Mobility_markerset:LSH3			Mobility_markerset:LSH4			Mobility_markerset:LLMAL			Mobility_markerset:LMMAL			Mobility_markerset:LCAL			Mobility_markerset:LMTP5			Mobility_markerset:LTOE			Mobility_markerset:LMTP1			Mobility_markerset:RPSIS			Mobility_markerset:RASIS			Mobility_markerset:RTH1			Mobility_markerset:RTH2			Mobility_markerset:RTH3			Mobility_markerset:RTH4			Mobility_markerset:RLFE			Mobility_markerset:RMFE			Mobility_markerset:RSH1			Mobility_markerset:RSH2			Mobility_markerset:RSH3			Mobility_markerset:RSH4			Mobility_markerset:RLMAL			Mobility_markerset:RMMAL			Mobility_markerset:RCAL			Mobility_markerset:RMTP1			Mobility_markerset:RTOE			Mobility_markerset:RMTP5		
		X1	Y1	Z1	X2	Y2	Z2	X3	Y3	Z3	X4	Y4	Z4	X5	Y5	Z5	X6	Y6	Z6	X7	Y7	Z7	X8	Y8	Z8	X9	Y9	Z9	X10	Y10	Z10	X11	Y11	Z11	X12	Y12	Z12	X13	Y13	Z13	X14	Y14	Z14	X15	Y15	Z15	X16	Y16	Z16	X17	Y17	Z17	X18	Y18	Z18	X19	Y19	Z19	X20	Y20	Z20	X21	Y21	Z21	X22	Y22	Z22	X23	Y23	Z23	X24	Y24	Z24	X25	Y25	Z25	X26	Y26	Z26	X27	Y27	Z27	X28	Y28	Z28	X29	Y29	Z29	X30	Y30	Z30	X31	Y31	Z31	X32	Y32	Z32	X33	Y33	Z33	X34	Y34	Z34	X35	Y35	Z35	X36	Y36	Z36

1039	8.65000	0.00000	0.00000	0.00000	-3395.99878	1026.78357	349.43530	-3376.99683	704.95325	405.54123	-3399.62769	662.69519	403.69617	-3432.98584	727.28656	412.95065	-3448.43213	684.26447	405.73129	0.00000	0.00000	0.00000	-3487.21021	543.41681	249.49104	-3314.68359	449.10132	343.68521	-3285.27612	413.82965	343.02353	-3357.32690	405.55255	350.36102	0.00000	0.00000	0.00000	-3140.03589	209.06305	295.67865	-3147.84058	211.71272	210.99333	-3069.84595	236.57036	239.13084	-3209.90161	82.20457	330.90274	-3256.91016	83.15963	271.05304	-3236.14136	87.91915	232.90172	-3184.27856	1058.36804	128.47937	-3425.86865	1011.38818	88.60895	-3310.38672	690.22784	4.63470	-3326.27124	647.95587	10.56400	-3373.35571	700.29077	6.02357	-3377.35620	658.50409	9.81443	-3378.56689	510.85638	53.81540	-3380.47729	524.93585	177.42043	0.00000	0.00000	0.00000	-3297.37109	264.94626	54.67709	-3355.01904	309.61609	49.54826	-3351.65625	264.96918	52.34460	-3326.07422	90.02466	94.55298	-3350.89893	112.95559	175.99603	-3275.21631	67.16627	146.48956	-3482.63086	50.70002	185.03258	-3515.57031	63.90858	137.73756	-3460.65479	37.43764	70.41299
1040	8.65833	0.00000	0.00000	0.00000	-3402.83008	1028.01453	348.47665	-3388.77417	707.25861	405.76489	-3411.74902	665.40308	403.55972	-3444.45532	730.58069	412.49277	-3459.97119	687.31885	405.23578	0.00000	0.00000	0.00000	-3500.84668	547.94147	248.43494	-3331.15625	448.31821	342.69412	-3303.00049	412.16083	342.11301	-3376.69409	405.19910	349.35620	0.00000	0.00000	0.00000	-3164.28418	202.85283	294.84930	-3173.21606	207.10880	210.35812	-3092.60522	228.32439	238.22757	-3237.79419	78.40520	330.12634	-3284.61548	80.67226	270.11520	-3263.73657	84.80058	232.08676	-3190.90088	1059.16626	128.10130	-3432.32324	1012.01416	87.77989	0.00000	0.00000	0.00000	-3330.68848	648.15216	10.53295	0.00000	0.00000	0.00000	-3381.96411	658.34521	9.44642	-3382.70166	511.01785	53.77825	-3385.17773	524.97620	177.20135	0.00000	0.00000	0.00000	-3298.97656	265.50430	54.70553	-3357.31860	309.68900	49.63207	-3353.49536	265.10535	52.39686	-3326.40820	90.31944	94.63778	-3351.78223	113.17020	176.13225	-3275.37695	67.44176	146.55937	-3482.71313	50.52306	185.00247	-3515.72070	63.55156	137.69426	-3460.77075	37.39791	70.34072
1041	8.66667	0.00000	0.00000	0.00000	-3409.59180	1029.15247	347.54218	-3400.10034	709.45184	405.87817	-3424.34546	668.05743	403.06805	-3455.49316	733.83838	412.05148	-3471.27417	690.50934	404.75928	0.00000	0.00000	0.00000	-3514.09399	552.14240	247.48088	-3347.20947	447.54761	341.67398	-3320.65698	410.45987	341.16266	-3394.73877	405.52200	348.52469	-3360.14697	376.78604	345.23380	-3188.59912	196.61014	294.11612	-3197.64600	200.69437	209.91637	-3116.05786	219.76329	237.18431	-3266.07617	74.69863	329.87933	-3312.64917	78.10428	270.03058	-3291.71729	81.51774	231.88846	-3197.69897	1059.83875	127.92490	-3438.82886	1012.79175	86.92741	0.00000	0.00000	0.00000	-3335.00317	648.21478	10.67652	0.00000	0.00000	0.00000	-3386.57129	658.19391	9.37244	-3386.75342	511.03278	53.92848	-3388.78369	524.30884	177.28461	0.00000	0.00000	0.00000	-3301.02319	266.14206	54.96391	-3359.86133	310.27234	50.20647	-3355.39966	265.29181	52.59495	-3326.73608	90.62029	94.78720	-3352.25293	113.36760	176.30556	-3275.86401	67.76803	146.76773	-3482.82812	50.40027	184.99068	-3515.84790	63.27580	137.68988	-3460.88940	37.40532	70.30494
1042	8.67500	0.00000	0.00000	0.00000	-3416.36523	1030.09399	346.50635	-3411.13745	711.92316	405.72366	-3435.95557	670.75409	402.73904	-3466.20703	737.07703	411.49390	-3482.12891	693.60101	404.25961	0.00000	0.00000	0.00000	-3527.08350	556.10107	246.54268	-3364.10962	446.28955	340.83328	-3338.21704	408.42853	340.15317	-3410.47681	406.95575	347.87970	-3377.59937	375.55542	343.23233	-3214.02344	189.93991	293.87463	-3222.55273	194.09116	209.56528	-3140.24707	210.76567	236.40395	-3294.80737	71.05814	330.17929	-3341.38525	75.67616	270.47192	-3320.39697	78.25624	232.18153	-3204.34790	1060.33789	127.88966	-3445.30957	1013.67749	86.10636	-3327.76904	690.59967	4.37108	-3339.53760	648.33539	10.97787	0.00000	0.00000	0.00000	-3390.95825	657.91119	9.57692	-3390.68188	510.91843	54.34570	-3394.19800	524.68024	176.91153	0.00000	0.00000	0.00000	-3302.71704	266.76962	55.10999	-3361.69653	309.97409	50.03007	-3357.20532	265.46460	52.78026	-3327.04224	90.91378	94.97243	-3352.64062	113.48074	176.48100	-3275.48364	68.17173	146.60999	-3482.95703	50.23272	184.99487	-3515.98853	63.03029	137.66765	-3460.94824	37.33664	70.28492
1043	8.68333	0.00000	0.00000	0.00000	-3423.30786	1030.96582	345.47998	-3421.80151	714.44916	405.36023	-3447.16064	673.57812	402.32159	-3476.50146	740.26569	410.86130	-3492.55371	696.61353	403.68680	-3499.48853	565.04340	378.83636	-3539.82471	559.80994	245.68788	-3379.51489	445.22513	339.67813	0.00000	0.00000	0.00000	-3428.13818	407.57681	347.31067	-3396.97388	374.70532	342.61487	-3239.26831	183.37677	293.50974	-3248.05103	187.32695	209.40141	-3165.37207	201.26001	236.04886	-3324.05518	67.59789	330.94629	-3371.13843	73.74702	271.37839	-3349.72412	75.14977	233.00432	-3210.58911	1060.73230	127.94608	-3451.67700	1014.51099	85.32612	-3332.32056	690.78461	4.90256	-3343.85791	648.32257	11.39371	0.00000	0.00000	0.00000	-3395.48242	657.68549	9.92610	-3394.72583	510.74490	54.66869	-3398.38135	524.32019	176.80939	0.00000	0.00000	0.00000	-3304.60425	267.40210	55.38782	-3363.86597	310.06534	50.29347	-3358.96924	265.51166	53.02402	-3327.39795	91.18290	95.13760	-3352.53760	113.40873	176.65157	-3275.43848	67.97775	146.78664	-3483.08716	50.03100	185.01364	-3516.15991	62.72734	137.69383	-3462.00317	38.28992	70.37085
1044	8.69167	0.00000	0.00000	0.00000	-3430.34009	1031.71680	344.43567	-3432.10522	716.59351	404.97327	-3457.85010	676.09479	401.75043	-3486.19702	743.29626	410.09372	-3502.60352	699.60126	402.97739	-3510.64893	567.57745	377.34607	-3552.36792	563.51288	244.78278	-3395.58496	443.74347	338.68674	-3373.61523	403.94080	338.69293	-3445.97485	407.67853	347.43069	-3417.09058	374.25064	343.93323	-3265.00000	176.75174	293.45679	-3274.00952	180.52623	209.41949	-3189.33130	192.17531	235.22185	-3353.24512	64.23634	332.02170	-3400.25513	71.45141	272.73090	-3379.19995	72.13688	234.79192	-3216.79590	1061.02258	128.01001	-3458.10132	1015.32996	84.51201	-3336.79614	690.80145	5.38448	-3348.22949	648.34741	11.93051	0.00000	0.00000	0.00000	-3399.89917	657.41248	10.37386	-3398.72559	510.54639	54.99784	-3402.51245	523.87158	176.76978	0.00000	0.00000	0.00000	-3306.25586	267.95889	55.61158	-3366.27197	310.56265	50.98935	-3360.76978	265.67822	53.29714	-3327.65356	91.44717	95.31084	-3353.40430	113.57042	176.90158	-3274.68286	68.41174	146.74048	-3483.22754	49.84140	185.03355	-3516.38184	62.47135	137.70200	-3462.07861	38.25764	70.36013
1045	8.70000	0.00000	0.00000	0.00000	-3437.30518	1032.34814	343.41785	-3441.71729	718.60449	404.26096	-3468.55054	678.34656	401.41492	-3495.63916	746.22351	409.32480	-3512.15991	702.37836	402.34070	-3521.35986	569.92139	375.79559	-3566.27881	567.44055	243.28529	-3411.54932	442.22308	337.77286	-3391.24048	401.52582	338.01846	-3463.18896	408.01639	346.99451	-3435.62720	373.46600	343.52383	-3291.06055	170.33237	293.64719	-3300.31958	173.73813	209.59392	-3215.76807	182.36743	234.94771	-3383.08594	61.35694	333.45389	-3430.19336	69.90434	274.33179	-3409.02002	69.16495	236.21738	-3222.96753	1061.57361	128.03340	-3464.39941	1016.03217	83.84548	-3341.27490	690.88483	5.89930	-3352.54761	648.25574	12.43634	0.00000	0.00000	0.00000	-3404.15210	657.16718	10.89323	-3402.50293	510.38483	55.32655	-3406.61841	523.46777	176.80052	0.00000	0.00000	0.00000	-3307.91040	268.47244	56.03799	-3368.37915	310.68524	51.30322	-3362.39062	265.82690	53.58587	-3327.90234	91.68391	95.52866	-3354.80420	113.93734	177.14603	-3275.75391	68.58504	147.08302	-3483.36768	49.65546	185.03806	-3516.63574	62.21695	137.73402	-3461.16602	37.23063	70.22591
